<svg xmlns="http://www.w3.org/2000/svg" viewBox="0 0 750 500"><g id="freepik--background-simple--inject-166"><g><path d="M738,268.75c-3.06-33.3-13.62-66.02-28.81-96.33C663.83,81.9,570.6,2.83,458.82,6.81c-71.67,2.56-142.76,11.29-214.05,18.22-60.85,5.91-121.38,11.33-169.3,51.12-20.74,17.22-37.45,38.84-47.72,63.06-28.56,67.34-7.22,146.84,38.93,204.89,46.14,58.05,113.75,97.66,183.26,128.86,28.34,12.72,60.15,24.51,90.39,16.57,18.63-4.89,34.23-16.74,51.9-24.12,59.47-24.83,128.44,4.38,193.15-1.91,38.44-3.74,75.28-20.64,102.1-46.84,32.04-31.29,49.02-74.73,51.17-118.15,.49-9.94,.25-19.88-.66-29.77Z" style="fill:#FBA666;"></path><path d="M738,268.75c-3.06-33.3-13.62-66.02-28.81-96.33C663.83,81.9,570.6,2.83,458.82,6.81c-71.67,2.56-142.76,11.29-214.05,18.22-60.85,5.91-121.38,11.33-169.3,51.12-20.74,17.22-37.45,38.84-47.72,63.06-28.56,67.34-7.22,146.84,38.93,204.89,46.14,58.05,113.75,97.66,183.26,128.86,28.34,12.72,60.15,24.51,90.39,16.57,18.63-4.89,34.23-16.74,51.9-24.12,59.47-24.83,128.44,4.38,193.15-1.91,38.44-3.74,75.28-20.64,102.1-46.84,32.04-31.29,49.02-74.73,51.17-118.15,.49-9.94,.25-19.88-.66-29.77Z" style="fill:#fff; opacity:.7;"></path></g></g><g id="freepik--Shadow--inject-166"><ellipse cx="376.44" cy="437.59" rx="364.17" ry="39.84" style="fill:#263238; stroke:#263238; stroke-miterlimit:10;"></ellipse></g><g id="freepik--Soda--inject-166"><g><polygon points="536.53 165.95 527.54 164.83 544.3 29.87 553.3 31 536.53 165.95" style="fill:#FBA666; stroke:#263238; stroke-miterlimit:10;"></polygon><path d="M552.04,88.59h-26.91c-33.14,6.3-58.21,35.41-58.21,70.38,0,.21,.01,.43,.02,.64h143.29c0-.21,.02-.43,.02-.64,0-34.98-25.06-64.08-58.21-70.38Z" style="fill:none; stroke:#263238; stroke-miterlimit:10;"></path><g><polygon points="596.97 430.28 482.46 430.28 468.15 162.82 611.28 162.82 596.97 430.28" style="fill:#FBA666; stroke:#263238; stroke-miterlimit:10;"></polygon><path d="M611.28,162.82h-26.77c2.62,18.7,.81,39.78-9.85,61.74-28.26,58.2-64.6,81.08-97.02,115.72l4.82,89.99h17.56c.93-27.75,13.53-66.76,57.9-115.08,19.28-20.99,35.22-41.02,48.39-59.6l4.97-92.78Z" style="fill:#fff; stroke:#263238; stroke-miterlimit:10;"></path><polygon points="610.63 175.1 611.27 163 468.16 163 468.81 175.1 610.63 175.1" style="fill:#263238; stroke:#263238; stroke-miterlimit:10;"></polygon><polygon points="616.19 172.91 463.24 172.91 466.2 158.12 613.23 158.12 616.19 172.91" style="fill:#fff; stroke:#263238; stroke-miterlimit:10;"></polygon></g></g></g><g id="freepik--French_Fries--inject-166"><g><g><path d="M297.99,167.97s-30.17,93.78-30.95,100.79c-.78,7.01-5.73,16.25-5.73,16.25l7.24,3.13s16.1-20.35,20.83-43.07c4.74-22.72,14.96-52.9,18.21-64.53s-4.48-18-9.61-12.57Z" style="fill:#263238; stroke:#263238; stroke-miterlimit:10;"></path><path d="M240.36,161.89s-3.27,53.7,1.31,73.99c4.58,20.3,3.27,52.39,3.27,52.39,0,0,13.75,13.75,15.06,6.55s-6.55-100.19-7.2-111.97c-.65-11.79-9.17-28.16-12.44-20.95Z" style="fill:#263238; stroke:#263238; stroke-miterlimit:10;"></path><path d="M224.01,166.93s-3.27,53.7,1.31,73.99c4.58,20.3,3.27,52.39,3.27,52.39,0,0,13.75,13.75,15.06,6.55,1.31-7.2-6.55-100.19-7.2-111.97-.65-11.79-9.17-28.16-12.44-20.95Z" style="fill:#263238; stroke:#263238; stroke-miterlimit:10;"></path><path d="M196.48,286.96s-9.17-34.71-16.37-58.28c-7.2-23.57-12.44-39.94-12.44-39.94l9.17-5.89s3.27,4.58,5.24,7.2c1.96,2.62,21.61,79.89,24.23,84.47,2.62,4.58,5.89,13.75,5.89,13.75l-15.72-1.31Z" style="fill:#e3e3e3; stroke:#263238; stroke-miterlimit:10;"></path><path d="M189.28,178.91s17.68,96.91,20.3,103.46c2.62,6.55,2.62,17.03,2.62,17.03l7.86-.65s4.58-25.54-1.96-47.8-11.79-53.7-14.41-65.48c-2.62-11.79-12.44-13.75-14.41-6.55Z" style="fill:#263238; stroke:#263238; stroke-miterlimit:10;"></path><path d="M204.26,178.91s17.68,96.91,20.3,103.46c2.62,6.55,2.62,17.03,2.62,17.03l7.86-.65s4.58-25.54-1.96-47.8c-6.55-22.26-11.79-53.7-14.41-65.48-2.62-11.79-12.44-13.75-14.41-6.55Z" style="fill:#263238; stroke:#263238; stroke-miterlimit:10;"></path><path d="M215.47,172.36s-3.27,53.7,1.31,73.99c4.58,20.3,3.27,52.39,3.27,52.39,0,0,13.75,13.75,15.06,6.55s-6.55-100.19-7.2-111.97c-.65-11.79-9.17-28.16-12.44-20.95Z" style="fill:#e3e3e3; stroke:#263238; stroke-miterlimit:10;"></path><path d="M227.91,173.67s4.58,81.85,5.24,85.78c.65,3.93,4.58,34.71,4.58,34.71,0,0-.65,5.24,3.27,4.58s7.2-1.96,7.2-1.96l2.62-19.64s-9.82-62.86-11.13-73.99c-1.31-11.13-3.93-30.12-5.89-30.78-1.96-.65-5.89,1.31-5.89,1.31Z" style="fill:#e3e3e3; stroke:#263238; stroke-miterlimit:10;"></path><path d="M277.6,176.74s-30.17,93.78-30.95,100.79c-.78,7.01-5.73,16.25-5.73,16.25l7.24,3.13s16.1-20.35,20.83-43.07c4.74-22.72,14.96-52.9,18.21-64.53,3.26-11.63-4.48-18-9.61-12.57Z" style="fill:#263238; stroke:#263238; stroke-miterlimit:10;"></path><path d="M343.44,175.53s-13.88,113.14-15.55,116.93c-1.67,3.79-2,14.28-2,14.28,0,0,15.46,3.42,17.01,.94,1.55-2.49,9.97-92.46,11.44-108.1,1.47-15.65,4.38-18.66,.77-22.29-3.61-3.63-11.67-1.75-11.67-1.75Z" style="fill:#263238; stroke:#263238; stroke-miterlimit:10;"></path><path d="M303.78,183.33s-28.23,45.79-33.78,65.85c-5.54,20.06-21.84,47.73-21.84,47.73,0,0,5.63,18.61,10.19,12.88,4.55-5.73,41.52-91.41,46.51-102.11,4.99-10.7,5.21-29.15-1.08-24.35Z" style="fill:#263238; stroke:#263238; stroke-miterlimit:10;"></path><path d="M314.13,190.36s-34.6,74.32-35.88,78.09-12.34,32.76-12.34,32.76c0,0-3.05,4.31,.72,5.59s7.28,1.67,7.28,1.67l11.58-16.08s21.02-60.05,25.12-70.49c4.1-10.43,10.76-28.41,9.33-29.91-1.42-1.5-5.81-1.63-5.81-1.63Z" style="fill:#e3e3e3; stroke:#263238; stroke-miterlimit:10;"></path><path d="M259.35,180.88s-.65,85.13-2.62,96.26c-1.96,11.13-2.62,24.88-2.62,24.88h7.2c2.62,0,9.82-53.7,9.82-75.96s2.62-39.94,1.96-47.8c-.65-7.86-11.13-7.86-11.13-7.86l-2.62,10.48Z" style="fill:#e3e3e3; stroke:#263238; stroke-miterlimit:10;"></path><path d="M282.26,176.95s-3.27,113.94-4.58,117.87c-1.31,3.93-.65,14.41-.65,14.41,0,0,15.72,1.96,17.03-.65,1.31-2.62,1.31-92.98,1.31-108.7s2.62-18.99-1.31-22.26-11.79-.65-11.79-.65Z" style="fill:#e3e3e3; stroke:#263238; stroke-miterlimit:10;"></path><path d="M248.46,305.8s11.93-113.36,13.53-117.18c1.6-3.82,1.75-14.31,1.75-14.31,0,0-15.52-3.15-17.03-.64-1.5,2.51-8.37,92.62-9.57,108.29-1.19,15.67-4.06,18.74-.39,22.3s11.7,1.55,11.7,1.55Z" style="fill:#e3e3e3; stroke:#263238; stroke-miterlimit:10;"></path><path d="M219.3,307.62s-12.87-113.26-12.13-117.33-1.39-14.35-1.39-14.35c0,0-15.84,.28-16.76,3.06-.93,2.78,11.85,92.24,14.07,107.79,2.22,15.56,.09,19.17,4.44,21.86,4.35,2.69,11.76-1.02,11.76-1.02Z" style="fill:#e3e3e3; stroke:#263238; stroke-miterlimit:10;"></path><path d="M197.1,204.35c1.81-.03,3.44,1.07,4.09,2.76,3.25,8.54,13.26,34.72,21.17,53.48,7.1,16.85,12.72,29.86,15.15,35.46,.77,1.78,.25,3.84-1.26,5.05l-2.77,2.21c-1.78,1.42-4.35,1.2-5.87-.49-1.09-1.22-2.31-2.58-3.26-3.6-2.22-2.4-29.66-77.26-32.73-81.55-1.31-1.83-2.82-4.47-4.12-6.9-1.52-2.82,.49-6.25,3.7-6.31l5.91-.11Z" style="fill:#e3e3e3; stroke:#263238; stroke-miterlimit:10;"></path><path d="M217.05,306.13s-27.49-94.6-30.76-100.85c-3.27-6.25-4.35-16.67-4.35-16.67l-7.75,1.45s-1.95,25.87,6.84,47.35c8.79,21.48,17.21,52.21,21.02,63.67,3.81,11.46,13.78,12.41,15,5.04Z" style="fill:#e3e3e3; stroke:#263238; stroke-miterlimit:10;"></path><path d="M256.07,316.09s32.78-92.9,33.76-99.88c.98-6.98,6.18-16.08,6.18-16.08l-7.15-3.33s-16.66,19.89-22.04,42.47c-5.37,22.58-16.44,52.46-20.02,63.99-3.58,11.53,3.97,18.11,9.25,12.84Z" style="fill:#e3e3e3; stroke:#263238; stroke-miterlimit:10;"></path><path d="M331.95,173.46s-30.17,93.78-30.95,100.79c-.78,7.01-5.73,16.25-5.73,16.25l7.24,3.13s16.1-20.35,20.83-43.07,14.96-52.9,18.21-64.53c3.26-11.63-4.48-18-9.61-12.57Z" style="fill:#263238; stroke:#263238; stroke-miterlimit:10;"></path><path d="M367.31,204.89s-30.17,93.78-30.95,100.79c-.78,7.01-5.73,16.25-5.73,16.25l7.24,3.13s16.1-20.35,20.83-43.07c4.74-22.72,14.96-52.9,18.21-64.53s-4.48-18-9.61-12.57Z" style="fill:#e3e3e3; stroke:#263238; stroke-miterlimit:10;"></path><path d="M358.13,180.06s-28.23,45.79-33.78,65.85c-5.54,20.06-21.84,47.73-21.84,47.73,0,0,5.63,18.61,10.19,12.88,4.55-5.73,41.52-91.41,46.51-102.11,4.99-10.7,5.21-29.15-1.08-24.35Z" style="fill:#e3e3e3; stroke:#263238; stroke-miterlimit:10;"></path><path d="M368.48,187.08s-34.6,74.32-35.88,78.09-12.34,32.76-12.34,32.76c0,0-3.05,4.31,.72,5.59s7.28,1.67,7.28,1.67l11.58-16.08s21.02-60.05,25.12-70.49c4.1-10.43,10.76-28.41,9.33-29.91-1.42-1.5-5.81-1.63-5.81-1.63Z" style="fill:#e3e3e3; stroke:#263238; stroke-miterlimit:10;"></path><path d="M338.52,183.59s-34.6,74.32-35.88,78.09c-1.28,3.77-12.34,32.76-12.34,32.76,0,0-3.05,4.31,.72,5.59s7.28,1.67,7.28,1.67l11.58-16.08s21.02-60.05,25.12-70.49c4.1-10.43,10.76-28.41,9.33-29.91-1.42-1.5-5.81-1.63-5.81-1.63Z" style="fill:#e3e3e3; stroke:#263238; stroke-miterlimit:10;"></path><path d="M313.7,177.6s-.65,85.13-2.62,96.26c-1.96,11.13-2.62,24.88-2.62,24.88h7.2c2.62,0,9.82-53.7,9.82-75.96s2.62-39.94,1.96-47.8c-.65-7.86-11.13-7.86-11.13-7.86l-2.62,10.48Z" style="fill:#e3e3e3; stroke:#263238; stroke-miterlimit:10;"></path><path d="M272.24,179.6s-.65,85.13-2.62,96.26c-1.96,11.13-2.62,24.88-2.62,24.88h7.2c2.62,0,9.82-53.7,9.82-75.96s2.62-39.94,1.96-47.8c-.65-7.86-11.13-7.86-11.13-7.86l-2.62,10.48Z" style="fill:#e3e3e3; stroke:#263238; stroke-miterlimit:10;"></path><path d="M305.62,310.15s11.93-113.36,13.53-117.18,1.75-14.31,1.75-14.31c0,0-15.52-3.15-17.03-.64-1.5,2.51-8.37,92.62-9.57,108.29-1.19,15.67-4.06,18.74-.39,22.3,3.67,3.56,11.7,1.55,11.7,1.55Z" style="fill:#e3e3e3; stroke:#263238; stroke-miterlimit:10;"></path></g><g><path d="M346.78,253.56c-5.5,22.35-35.26,39.43-71.14,39.43s-65.64-17.08-71.14-39.43h-20.45l9.16,170.25h164.87l9.16-170.25h-20.45Z" style="fill:#FBA666; stroke:#263238; stroke-miterlimit:10;"></path><path d="M218.67,423.81h113.94v-149.02c-13.18,11.07-33.79,18.2-56.97,18.2s-43.79-7.13-56.97-18.2v149.02Z" style="fill:#fff; stroke:#263238; stroke-miterlimit:10;"></path></g></g></g><g id="freepik--Burger--inject-166"><g><g><path d="M355.61,281.31s-33.22,1.69-53.5,12.39c-20.27,10.7-25.9,17.46-29.28,23.65s-3.38,16.33-3.1,18.02c.28,1.69,2.25,2.25,3.94,2.25s175.98-2.53,180.48-2.25c4.51,.28,7.04-2.25,5.35-7.88-1.69-5.63-5.63-19.99-31.82-31.25-26.19-11.26-56.88-17.46-72.08-14.92Z" style="fill:#e3e3e3; stroke:#263238; stroke-miterlimit:10;"></path><g><path d="M367.03,296.09s-2.69,1.79-1.64,4.19c1.05,2.39,2.99,1.64,2.99,1.64,0,0,1.94,0,1.35-2.69s-2.69-3.14-2.69-3.14Z" style="fill:#fff;"></path><path d="M376.9,302.52s-2.39,1.35-2.24,3.59,2.54,3.74,3.29,1.35c.75-2.39,.75-6.43-1.05-4.93Z" style="fill:#fff;"></path><path d="M389.01,298.64s-1.64,2.24-1.2,3.29c.45,1.05,2.54,2.54,2.84,1.64s1.79-1.35,.9-3.74-2.09-1.94-2.54-1.2Z" style="fill:#fff;"></path><path d="M400.22,306.56c-.9,.15-1.2,1.79-.9,2.84,.3,1.05,4.04,3.59,4.78,2.39,.75-1.2-.45-3.44-1.5-4.34-1.05-.9-2.39-.9-2.39-.9Z" style="fill:#fff;"></path><path d="M419.81,306.86s-.6-2.39-2.69-2.69c-2.09-.3-2.54,.15-1.94,1.05,.6,.9,2.54,4.19,3.74,3.89,1.2-.3,.9-2.24,.9-2.24Z" style="fill:#fff;"></path><path d="M431.32,306.56s-1.05,2.69,0,4.19c1.05,1.5,3.74,3.14,3.44,.6-.3-2.54-.9-3.59-1.79-4.34-.9-.75-1.49-1.64-1.64-.45Z" style="fill:#fff;"></path><path d="M424.74,302.67s-.15-1.35-3.44-3.29-2.99-.3-1.35,1.64c1.64,1.94,4.78,1.64,4.78,1.64Z" style="fill:#fff;"></path><path d="M406.65,294.75s-1.64,.9-1.05,2.39c.6,1.5,4.04,3.29,4.34,2.09,.3-1.2,.6-1.79-.6-3.44-1.2-1.64-2.69-1.05-2.69-1.05Z" style="fill:#fff;"></path><path d="M386.02,291.31s-2.84-2.24-4.49-2.39c-1.64-.15-2.99,.75-2.09,1.35,.9,.6,1.94,1.94,3.59,2.09s2.99-1.05,2.99-1.05Z" style="fill:#fff;"></path><path d="M372.42,289.67s-4.63-.9-6.43-.45-2.99-.45-1.79,.45c1.2,.9,2.99,1.64,4.04,1.35,1.05-.3,4.19-1.35,4.19-1.35Z" style="fill:#fff;"></path><path d="M354.03,291.61s-4.49-.45-5.53,0c-1.05,.45-1.5,1.2-.75,1.64,.75,.45,3.29,2.84,5.38,1.79,2.09-1.05,2.54-3.74,.9-3.44Z" style="fill:#fff;"></path><path d="M345.06,287.42s-.6,1.2-2.09,2.39c-1.49,1.2,0,2.39,.75,2.39s3.29-1.35,4.04-2.54c.75-1.2,2.09-2.69,.75-3.14s-3.44,.9-3.44,.9Z" style="fill:#fff;"></path><path d="M340.57,292.8c-.75,.13-7.03,1.5-7.18,2.39-.15,.9-1.79,.3-2.09,1.64-.3,1.35,1.2,4.34,2.39,4.19,1.2-.15,1.79-3.44,1.79-3.44,0,0,1.35-.45,2.69-1.5,1.35-1.05,5.08-3.74,2.39-3.29Z" style="fill:#fff;"></path><path d="M287.2,307.16s-2.84,5.98-1.49,5.38c1.35-.6,5.23-2.69,4.78-4.34-.45-1.64-2.39-2.39-3.29-1.05Z" style="fill:#fff;"></path><path d="M281.22,313.89s-3.14,3.44-2.09,4.49c1.05,1.05,2.84,.15,3.59-2.54,.75-2.69-.9-3.14-1.5-1.94Z" style="fill:#fff;"></path><path d="M286.6,314.93s-1.05,3.59,.15,4.49c1.2,.9,2.69-.45,2.69-3.29s-1.79-3.59-2.84-1.2Z" style="fill:#fff;"></path><path d="M312.91,292.21s-4.04,1.94-2.54,2.54c1.5,.6,7.48-1.2,7.03-2.24-.45-1.05-4.49-.3-4.49-.3Z" style="fill:#fff;"></path><path d="M320.09,287.72s-1.2,1.64-3.14,1.5,.45-2.54,3.14-1.5Z" style="fill:#fff;"></path><path d="M337.43,287.12s-5.38,1.64-4.04,3.14c1.35,1.49,5.98-.6,6.73-1.64,.75-1.05-2.69-1.5-2.69-1.5Z" style="fill:#fff;"></path><path d="M371.82,280.69s-5.38,1.05-4.49,2.09c.9,1.05,5.68,.15,6.58-.75,.9-.9,0-1.05-2.09-1.35Z" style="fill:#fff;"></path><path d="M397.23,287.57s-5.38,.45-4.49,1.5c.9,1.05,6.13,1.2,7.18,0,1.05-1.2-2.69-1.5-2.69-1.5Z" style="fill:#fff;"></path><path d="M416.07,292.95s1.94,0-1.35-1.94c-3.29-1.94-4.93-1.5-3.74,0,1.2,1.5,3.59,2.24,5.08,1.94Z" style="fill:#fff;"></path><path d="M434.16,301.63s-4.19-4.63-5.98-4.04,.6,3.14,1.94,3.74c1.35,.6,3.59,1.79,4.04,.3Z" style="fill:#fff;"></path><path d="M344.01,281.44s-6.73,.15-5.38,1.5,9.12-.15,9.57-.75-4.19-.75-4.19-.75Z" style="fill:#fff;"></path><path d="M297.96,296.24s-5.23,1.79-5.08,3.29,3.29,.45,4.78-1.05c1.5-1.5,2.39-3.14,.3-2.24Z" style="fill:#fff;"></path></g></g><path d="M254.83,403.07s2.17,17.12,6.72,23.41c4.55,6.29,9.97,10.19,12.57,10.62,2.6,.43,62.86,8.02,116.19,4.34,53.32-3.69,60.26-5.64,65.46-13.66,5.2-8.02,6.94-23.63,6.94-23.63l-207.88-1.08Z" style="fill:#e3e3e3; stroke:#263238; stroke-miterlimit:10;"></path><g><path d="M252.66,377.06s-5.2,2.6-8.24,3.68c-3.03,1.08-6.07,7.37-4.99,9.97l1.08,2.6s-1.73,4.99,2.82,7.59,7.59,2.6,7.59,2.6c0,0,9.54,4.34,12.36,4.55,2.82,.22,5.42-.43,5.42-.43,0,0,.65,.65,3.9,1.3s5.2,.43,5.2,.43c0,0,7.8,1.52,11.27,1.52s8.45-1.3,8.45-1.3c0,0,1.3,1.73,4.99,1.52,3.68-.22,9.97-1.08,11.27-1.52,1.3-.43,6.07-1.95,6.07-1.95,0,0,3.68,2.38,10.19,1.95,6.5-.43,13.44-3.03,13.44-3.03l4.12,.43s5.64,1.08,7.59-.22,3.03-1.3,3.03-1.3c0,0,8.24,2.38,19.94,2.38s22.11-.65,22.11-.65c0,0,8.45,1.3,12.57,1.3h10.19l14.74-.22,9.1-1.08,4.99,.43,10.62-.22s.65-1.08,3.9-1.3,4.77-.43,4.77-.43l2.82-1.3,2.17-1.95,.87-3.25,1.3-3.69,1.3-3.47,.22-3.68-1.08-3.69-1.73-3.47-2.38-1.95-2.6-1.52-2.82-.43-11.06-.87-141.33-1.08-58.31,.87-5.85,.87Z" style="fill:#969696; stroke:#263238; stroke-miterlimit:10;"></path><path d="M261.55,382.48s7.37,3.9,13.01,10.19,4.55,9.75,4.55,10.84,0,2.17,.87,3.25c.87,1.08,2.38,2.38,2.38,2.38l3.9,.65,3.25-1.73,2.38-3.03,.43-2.82-.87-6.72-2.6-3.69-2.6-2.17-6.29-3.25s1.52,1.3-2.82-2.17c-4.34-3.47-.51,1.95-4.05-2.39-3.54-4.33-5.06-3.47,6.87-4.77,11.92-1.3,54.84,4.55,54.84,4.55,0,0,9.1,9.54,9.54,13.66,.43,4.12,0,6.5,0,6.5l6.94,3.03s5.42-.43,7.15-1.08c1.73-.65,3.69-1.52,3.69-1.52l.87-4.12-1.3-4.55-3.03-3.9-6.07-4.55-6.94-3.69-3.68-1.95-2.6-1.08,22.98,.43s31.65-1.73,39.88,3.03c8.24,4.77,11.06,10.4,11.06,10.4l2.17,5.2,1.73,4.77,4.77,.87s1.95,.22,3.03-.87,1.08-2.38,1.08-2.38l-.65-4.99-2.38-4.55s-4.55-4.12-6.5-4.99c-1.95-.87-5.85-3.47-5.85-3.47l4.77-2.17,30.56,1.95,8.45,5.85,2.38,5.64,.65,6.07,.87,1.73,3.9,1.3,2.17-3.9v-5.2l-3.47-6.94-9.32-4.77s-5.85-3.25-7.15-3.47c-1.3-.22-10.84-.22-10.84-.22l35.55,1.95s5.42,9.97,5.64,12.57c.22,2.6,0,4.77,0,4.77l1.3-2.38,.22-8.45-1.95-4.12-3.03-2.82s-6.5-1.08-13.22-2.82c-6.72-1.73-8.45-1.73-17.12-2.38-8.67-.65-179.27,.22-179.27,.22,0,0-2.82,4.77-.22,8.24Z" style="opacity:.32;"></path><path d="M250.93,393.75c0,.84-.68,1.52-1.52,1.52s-1.52-.68-1.52-1.52,.68-1.52,1.52-1.52,1.52,.68,1.52,1.52Z" style="fill:none; stroke:#263238; stroke-miterlimit:10;"></path><circle cx="258.41" cy="399.06" r="1.19" style="fill:none; stroke:#263238; stroke-miterlimit:10;"></circle><path d="M257.43,387.68c0,.6-.49,1.08-1.08,1.08s-1.08-.49-1.08-1.08,.49-1.08,1.08-1.08,1.08,.49,1.08,1.08Z" style="fill:none; stroke:#263238; stroke-miterlimit:10;"></path><path d="M269.57,398.63c0,1.02-.83,1.84-1.84,1.84s-1.84-.82-1.84-1.84,.82-1.84,1.84-1.84,1.84,.83,1.84,1.84Z" style="fill:none; stroke:#263238; stroke-miterlimit:10;"></path><path d="M300.79,391.26c0,.9-.73,1.63-1.63,1.63s-1.63-.73-1.63-1.63,.73-1.63,1.63-1.63,1.63,.73,1.63,1.63Z" style="fill:none; stroke:#263238; stroke-miterlimit:10;"></path><path d="M306.21,399.93c0,.42-.34,.76-.76,.76s-.76-.34-.76-.76,.34-.76,.76-.76,.76,.34,.76,.76Z" style="fill:none; stroke:#263238; stroke-miterlimit:10;"></path><circle cx="298.29" cy="405.35" r="1.19" style="fill:none; stroke:#263238; stroke-miterlimit:10;"></circle><path d="M317.69,401.66c0,.54-.44,.98-.98,.98s-.98-.44-.98-.98,.44-.98,.98-.98,.98,.44,.98,.98Z" style="fill:none; stroke:#263238; stroke-miterlimit:10;"></path><path d="M323.98,389.63c0,1.2-.97,2.17-2.17,2.17s-2.17-.97-2.17-2.17,.97-2.17,2.17-2.17,2.17,.97,2.17,2.17Z" style="fill:none; stroke:#263238; stroke-miterlimit:10;"></path><path d="M334.17,399.39c0,.6-.49,1.08-1.08,1.08s-1.08-.49-1.08-1.08,.49-1.08,1.08-1.08,1.08,.49,1.08,1.08Z" style="fill:none; stroke:#263238; stroke-miterlimit:10;"></path><circle cx="381.32" cy="399.5" r="1.41" style="fill:none; stroke:#263238; stroke-miterlimit:10;"></circle><path d="M372.54,402.42c0,.48-.39,.87-.87,.87s-.87-.39-.87-.87,.39-.87,.87-.87,.87,.39,.87,.87Z" style="fill:none; stroke:#263238; stroke-miterlimit:10;"></path><path d="M375.35,390.5c0,.6-.49,1.08-1.08,1.08s-1.08-.49-1.08-1.08,.49-1.08,1.08-1.08,1.08,.49,1.08,1.08Z" style="fill:none; stroke:#263238; stroke-miterlimit:10;"></path><path d="M397.9,398.3c0,.24-.19,.43-.43,.43s-.43-.19-.43-.43,.19-.43,.43-.43,.43,.19,.43,.43Z" style="fill:none; stroke:#263238; stroke-miterlimit:10;"></path><path d="M388.14,401.66c0,.54-.44,.98-.98,.98s-.98-.44-.98-.98,.44-.98,.98-.98,.98,.44,.98,.98Z" style="fill:none; stroke:#263238; stroke-miterlimit:10;"></path><path d="M437.57,399.71c0,.54-.44,.98-.98,.98s-.98-.44-.98-.98,.44-.98,.98-.98,.98,.44,.98,.98Z" style="fill:none; stroke:#263238; stroke-miterlimit:10;"></path><path d="M433.45,392.02c0,.84-.68,1.52-1.52,1.52s-1.52-.68-1.52-1.52,.68-1.52,1.52-1.52,1.52,.68,1.52,1.52Z" style="fill:none; stroke:#263238; stroke-miterlimit:10;"></path><circle cx="452.74" cy="402.21" r="1.3" style="fill:none; stroke:#263238; stroke-miterlimit:10;"></circle><path d="M451.87,392.78c0,.66-.53,1.19-1.19,1.19s-1.19-.53-1.19-1.19,.53-1.19,1.19-1.19,1.19,.53,1.19,1.19Z" style="fill:none; stroke:#263238; stroke-miterlimit:10;"></path><path d="M472.25,395.6c0,.42-.34,.76-.76,.76s-.76-.34-.76-.76,.34-.76,.76-.76,.76,.34,.76,.76Z" style="fill:none; stroke:#263238; stroke-miterlimit:10;"></path><path d="M469.65,401.77c0,.48-.39,.87-.87,.87s-.87-.39-.87-.87,.39-.87,.87-.87,.87,.39,.87,.87Z" style="fill:none; stroke:#263238; stroke-miterlimit:10;"></path></g><path d="M339,380.14s22.05,.61,35.06,.82c13.01,.22,29.05,2.38,29.7,2.82,.65,.43,3.03,1.3,3.9,1.3s6.07-1.95,6.07-1.95l5.42,.65,6.29-1.95,7.8,1.3,8.45-1.95,6.07,2.17,3.9-1.95,4.77,1.95,3.03-1.52,4.55,2.38,4.55-1.95,2.38,.22s1.73-13.66,.43-14.09c-1.3-.43-2.86-.64-2.86-.64l-129.58-1.74,.06,14.13Z" style="fill:#FBA666; stroke:#263238; stroke-miterlimit:10;"></path><g><g><path d="M350.43,369.04s-.17,16.08,.22,19.08c.44,3.37,5.63,6.12,8.67,2.41,1.76-2.14,.86-9.13,3.03-9.56,2.17-.43,3.47,1.52,7.15,1.52s6.72-1.08,6.72-1.08c0,0,1.3,3.03,8.24,3.9,6.94,.87,7.8-1.08,8.89-4.12,1.08-3.03,3.68-5.85,8.67-6.29,4.99-.43,6.07-2.82,7.59-3.68,1.52-.87,5.64-2.38,5.64-2.38l1.08-4.12-68.5-.43,2.6,4.77Z" style="fill:#858585; stroke:#263238; stroke-miterlimit:10;"></path><path d="M355.53,384.72c0,1.4-.54,2.53-1.21,2.53s-1.21-1.13-1.21-2.53,.54-2.53,1.21-2.53,1.21,1.13,1.21,2.53Z" style="fill:#fff;"></path><path d="M379.85,379.1c0,1.4-.54,2.53-1.21,2.53s-1.21-1.13-1.21-2.53,.54-2.53,1.21-2.53,1.21,1.13,1.21,2.53Z" style="fill:#fff;"></path></g><path d="M394.75,366.91s-.56,2.82,34.91,2.82,38.86-1.97,38.86-1.97l-3.66-11.83-14.92,1.69-50.68-3.1-4.51,12.39Z" style="fill:#fff; stroke:#263238; stroke-miterlimit:10;"></path><line x1="458.95" y1="361.28" x2="460.63" y2="368.31" style="fill:none; stroke:#263238; stroke-miterlimit:10;"></line><line x1="446.27" y1="361.28" x2="447.12" y2="365.5" style="fill:none; stroke:#263238; stroke-miterlimit:10;"></line><line x1="426.85" y1="369.16" x2="425.72" y2="362.4" style="fill:none; stroke:#263238; stroke-miterlimit:10;"></line></g><path d="M269.57,366.01s21.89,6.5,31.21,7.15c9.32,.65,30.78-2.82,30.78-2.82,0,0,11.06,1.73,14.74,1.73s11.06-3.25,11.06-3.25c0,0-13.87-12.14-24.28-12.14s-63.51,9.32-63.51,9.32Z" style="fill:#263238; stroke:#263238; stroke-miterlimit:10;"></path><path d="M256.78,366.34s-5.63,0-5.63,2.53,.56,8.73,1.97,10.42,1.97,2.25,2.82,2.53c.84,.28,4.22-1.69,4.22-1.69,0,0,1.69,1.97,2.82,1.69,1.13-.28,4.79-2.53,4.79-2.53,0,0,3.94,2.53,5.35,2.53s5.63-2.53,5.63-2.53c0,0,3.38,2.53,4.22,2.53s5.07-1.97,5.07-1.97l2.82,.84,3.1-1.13,3.1,1.13,3.94-1.13s4.51,.84,5.35,1.13c.84,.28,4.79-1.41,4.79-1.41l2.53,1.13,4.22-1.69s2.53,.56,3.38,.84c.84,.28,4.51-1.13,5.35-.56,.84,.56,2.53,1.69,3.38,1.69s5.07-1.13,5.07-1.13l3.94,.56,1.69-3.1-1.13-9.57-21.68,.56-10.7,3.1s-8.73-.56-11.83-.56-12.39-1.41-14.36-1.69l-24.21-2.53Z" style="fill:#FBA666; stroke:#263238; stroke-miterlimit:10;"></path><g><path d="M321.26,360.99s21.68,11.26,52.09,10.14,37.73-3.94,37.73-3.94v-10.98s-29.85,2.82-54.34,1.13c-24.5-1.69-31.25-7.04-31.25-7.04l-4.22,10.7Z" style="fill:#fff; stroke:#263238; stroke-miterlimit:10;"></path><line x1="366.31" y1="358.18" x2="365.47" y2="365.22" style="fill:#fff; stroke:#263238; stroke-miterlimit:10;"></line><line x1="378.14" y1="358.74" x2="378.14" y2="364.09" style="fill:none; stroke:#263238; stroke-miterlimit:10;"></line><line x1="373.35" y1="371.13" x2="373.07" y2="363.53" style="fill:none; stroke:#263238; stroke-miterlimit:10;"></line><line x1="385.74" y1="359.59" x2="386.3" y2="364.94" style="fill:none; stroke:#263238; stroke-miterlimit:10;"></line><line x1="402.07" y1="363.25" x2="402.63" y2="368.31" style="fill:none; stroke:#263238; stroke-miterlimit:10;"></line><line x1="393.62" y1="358.46" x2="393.62" y2="362.68" style="fill:none; stroke:#263238; stroke-miterlimit:10;"></line><line x1="352.79" y1="368.88" x2="353.64" y2="362.4" style="fill:none; stroke:#263238; stroke-miterlimit:10;"></line></g><g><g><path d="M305.35,362.4s-.03,.55-.06,1.44c-.12,3.15-.28,10.53,.68,12.62,1.24,2.69,5.58,2.27,7.03-1.24,1.45-3.52,1.24-6.2,2.89-6.2s2.48,.21,6.62-1.24,3.1-3.52,5.17-3.93c2.07-.41,4.14,0,5.79-1.86,1.65-1.86,2.48-3.93,2.48-3.93" style="fill:#858585; stroke:#263238; stroke-miterlimit:10;"></path><ellipse cx="307.07" cy="373.85" rx="1.21" ry="2.53" style="fill:#fff;"></ellipse></g><path d="M272.27,356.77s-11.83-1.97-12.67-.28-3.94,8.73-2.82,9.85c1.13,1.13-1.69,4.5,34.63-.56,36.32-5.07,81.09-10.42,83.06-11.26s4.51-.28,4.51-.28c0,0-9.01-7.04-35.76-7.6-26.75-.56-37.73,0-45.33,1.69-7.6,1.69-25.62,8.45-25.62,8.45Z" style="fill:#fff; stroke:#263238; stroke-miterlimit:10;"></path><line x1="274.8" y1="359.87" x2="275.65" y2="366.06" style="fill:none; stroke:#263238; stroke-miterlimit:10;"></line><line x1="289.72" y1="353.67" x2="291.69" y2="362.96" style="fill:none; stroke:#263238; stroke-miterlimit:10;"></line><line x1="283.53" y1="359.02" x2="284.37" y2="364.09" style="fill:none; stroke:#263238; stroke-miterlimit:10;"></line><line x1="297.89" y1="363.81" x2="296.48" y2="359.3" style="fill:none; stroke:#263238; stroke-miterlimit:10;"></line><line x1="310.56" y1="361.56" x2="308.87" y2="354.24" style="fill:none; stroke:#263238; stroke-miterlimit:10;"></line><line x1="320.41" y1="352.55" x2="321.26" y2="357.33" style="fill:none; stroke:#263238; stroke-miterlimit:10;"></line><line x1="263.82" y1="359.59" x2="262.97" y2="366.62" style="fill:none; stroke:#263238; stroke-miterlimit:10;"></line><line x1="349.13" y1="357.9" x2="348.01" y2="352.83" style="fill:none; stroke:#263238; stroke-miterlimit:10;"></line></g><g><path d="M271.14,340.16l-1.13,16.33s34.35-8.73,63.92-7.6c29.56,1.13,54.62,8.17,75.18,9.29,20.55,1.13,40.55,.56,40.83-.56,.28-1.13-3.1-13.8-3.1-13.8,0,0-70.95-14.64-107.56-15.49-36.6-.84-63.92,9.29-68.14,11.83Z" style="fill:#263238; stroke:#263238; stroke-miterlimit:10;"></path><path d="M409.11,345.79l1.69,7.6s-12.95,3.38-34.35,.28" style="fill:none; stroke:#263238; stroke-miterlimit:10;"></path></g><g><g><path d="M285.22,340.16s15.77-2.82,23.65-4.5,12.39-2.25,12.39-2.25c0,0,15.49-.56,24.5-.56s25.62,3.1,25.62,3.1c0,0,7.88,1.41,9.29,1.69,0,0,1.41-6.76-1.13-8.17-2.53-1.41-36.04-11.54-36.04-11.54,0,0-14.64-.28-18.02,.84-3.38,1.13-9.01,3.94-9.01,3.94l-6.48,3.1-10.14,2.25s-5.07,1.13-6.76,1.69c-1.69,.56-3.38,.84-3.38,.84,0,0-5.35,4.79-4.51,9.57Z" style="fill:#FBA666; stroke:#263238; stroke-miterlimit:10;"></path><path d="M247.49,352.55s3.1-2.82,14.36-4.51,11.83-3.1,11.83-3.1c0,0-11.54-5.35-17.74-1.97s-8.45,9.57-8.45,9.57Z" style="fill:#263238; stroke:#263238; stroke-miterlimit:10;"></path><path d="M410.52,339.03s7.88,.56,13.23,3.38c5.35,2.82,9.01,3.1,13.8,3.38,4.79,.28,15.49-2.82,19.99-4.51,4.51-1.69,8.45-1.97,10.98-3.94,2.53-1.97,5.07-7.04,5.07-7.04,0,0-14.36-1.13-26.47,.84-12.11,1.97-21.12-.28-23.93-.56-2.82-.28-16.89,4.79-17.74,7.32-.84,2.53,5.07,1.13,5.07,1.13Z" style="fill:#263238; stroke:#263238; stroke-miterlimit:10;"></path><path d="M418.96,331.99s2.25,1.13,4.22,5.07c1.97,3.94,9.01,7.88,11.83,8.45s15.77-3.38,17.46-6.76,7.88-1.69,10.98-3.38c3.1-1.69,9.57-2.25,10.14-5.07,.56-2.82,1.41-2.82-1.41-1.97-2.82,.84-11.26,2.25-11.26,2.25l-3.1-.28s-.56-5.35-3.1-3.38l-2.53,1.97-5.07,2.25s-3.1-1.41-5.35-1.69l-2.25-.28s9.01-3.66,8.73-7.04c-.28-3.38-3.38-1.69-5.35-.56-1.97,1.13-6.19,3.66-6.19,3.66l-4.51,1.13-6.19,1.13h-3.94l-3.94,1.69-5.91-2.82s-1.13-1.13-5.07-.28c-3.94,.84-6.19,1.69-6.19,1.69,0,0-3.66,2.25-2.82,3.1s-.56,.84,2.53,1.41c3.1,.56,4.22,1.13,6.19,.84,1.97-.28,12.11-1.13,12.11-1.13Z" style="fill:#FBA666; stroke:#263238; stroke-miterlimit:10;"></path><path d="M286.34,328.05s-5.35,2.53-9.01,.56c-3.66-1.97-9.85-12.39-12.39-9.85s-1.41,6.19-1.69,8.17c-.28,1.97-.28,1.69-3.94,3.94-3.66,2.25-4.51,3.38-3.66,5.35s1.41,3.38,.28,3.94c-1.13,.56-5.63,.28-7.32,1.69-1.69,1.41-1.97,1.69-3.1,3.94-1.13,2.25-.56,1.13-2.82,3.1-2.25,1.97-6.19-.84-2.25,1.97,3.94,2.82,7.32,2.25,9.85-.84,2.53-3.1,8.17-7.32,10.7-6.19s-.28,1.69,2.53,1.13c2.82-.56,7.04-.56,7.88,3.1s6.76,7.88,10.14,4.51c3.38-3.38,3.38-19.71,7.32-19.71s8.17,1.69,9.85,1.41c1.69-.28,3.38-2.82,5.35-1.97,1.97,.84,4.22,1.41,4.22,1.41l4.22-3.94s5.07-1.41,7.32-2.25,5.35-5.91,7.88-5.91,4.79,4.22,5.35,5.63c.56,1.41,4.51,.84,6.19,1.13,1.69,.28,9.85-7.6,12.67-5.07,2.82,2.53,3.66,6.48,5.07,7.04,1.41,.56,7.88-4.79,10.98-1.97,3.1,2.82,4.79,3.1,6.76,5.91,1.97,2.82,16.89,8.73,25.06,10.14,8.17,1.41,8.73,2.53,10.7-1.13,1.97-3.66,1.97-4.79,4.5-7.88s2.82-4.22,3.94-3.38c1.13,.84,1.13-2.82-.84-2.82s-8.17,1.13-10.42,1.13-2.53,2.25-4.22-.84c-1.69-3.1-4.79-5.63-4.79-5.63l-11.54-3.1-7.6,.84-9.29-.56-7.88-5.91-6.76-1.13-3.38,1.13s1.41-7.32-2.25-7.6c-3.66-.28-10.14,.56-10.14,.56l-3.1,2.25-3.1,2.53-3.1-3.66s-4.5-.84-5.35-.28c-.84,.56-4.22,.84-4.22,.84l-2.82-2.53s-7.04,1.69-7.6,3.1c-.56,1.41-1.13,5.07-1.13,5.07l-4.22,3.66s2.25,.84-5.07,1.69-9.01,2.53-9.01,2.53l-1.97,1.13-2.82,3.66Z" style="fill:#FBA666; stroke:#263238; stroke-miterlimit:10;"></path><path d="M258.47,339.88s8.45-1.41,14.92-6.76" style="fill:none; stroke:#263238; stroke-miterlimit:10;"></path><line x1="286.34" y1="328.05" x2="285.22" y2="334.81" style="fill:none; stroke:#263238; stroke-miterlimit:10;"></line></g><path d="M289.72,330.58s3.63-7.36,11.95-7.36,12.3,.36,13.02,0c.72-.36,4.34-3.62,5.61-2.71,1.27,.9,.18,1.99,1.27,.9,1.09-1.09-2.35-7.78,2.53-6.15,4.88,1.63,9.41,7.23,9.41,7.23,0,0,3.26-6.51,3.62-4.88s.9,3.62,.9,3.62c0,0,5.34-5.56,5.47-3.32s-1.86,4.23-.41,4.23,4.52-1.63,4.52-1.63c0,0,3.98-1.45,5.79,0,1.81,1.45,9.41,3.26,10.13,4.34,.72,1.09,4.52,1.99,4.52,1.99l9.95,1.99s4.7,3.62,6.51,4.7c1.81,1.09,8.5-1.63,14.83-1.09l6.33,.54" style="fill:none; stroke:#263238; stroke-miterlimit:10;"></path><path d="M456.86,334.8s-18.63,3.44-31.29-.9" style="fill:none; stroke:#263238; stroke-miterlimit:10;"></path><path d="M423.58,335.7s8.68,2.89,13.75,4.52" style="fill:none; stroke:#263238; stroke-miterlimit:10;"></path><line x1="409.65" y1="336.07" x2="408.57" y2="340.41" style="fill:none; stroke:#263238; stroke-miterlimit:10;"></line><path d="M400.97,334.8s.18,3.26-.18,4.88" style="fill:none; stroke:#263238; stroke-miterlimit:10;"></path><path d="M394.82,334.98s-3.44,1.99-4.34,2.53" style="fill:none; stroke:#263238; stroke-miterlimit:10;"></path><path d="M280.69,333.9s-5.25,2.17-12.3,4.88" style="fill:none; stroke:#263238; stroke-miterlimit:10;"></path><path d="M283.77,335.7s-7.6,5.25-9.95,6.15" style="fill:none; stroke:#263238; stroke-miterlimit:10;"></path><path d="M283.95,340.41s-8.5,8.5-11.39,9.22" style="fill:none; stroke:#263238; stroke-miterlimit:10;"></path></g></g></g></svg>
